{
    "accessors" : [
        {
            "bufferView" : 0,
            "componentType" : 5123,
            "count" : 456,
            "max" : [
                262
            ],
            "min" : [
                0
            ],
            "type" : "SCALAR"
        },
        {
            "bufferView" : 1,
            "componentType" : 5126,
            "count" : 263,
            "max" : [
                0.4250143766403198,
                1.0119737386703491,
                1.8346571922302246
            ],
            "min" : [
                -3.2921414375305176,
                -1.0119731426239014,
                -1.4446790218353271
            ],
            "type" : "VEC3"
        },
        {
            "bufferView" : 2,
            "componentType" : 5126,
            "count" : 263,
            "max" : [
                1.0,
                1.0,
                1.0
            ],
            "min" : [
                -1.0,
                -1.0,
                -1.0
            ],
            "type" : "VEC3"
        },
        {
            "bufferView" : 3,
            "componentType" : 5123,
            "count" : 408,
            "max" : [
                237
            ],
            "min" : [
                0
            ],
            "type" : "SCALAR"
        },
        {
            "bufferView" : 4,
            "componentType" : 5126,
            "count" : 238,
            "max" : [
                0.4250143766403198,
                1.0119737386703491,
                1.8346571922302246
            ],
            "min" : [
                -3.2921414375305176,
                -1.0119731426239014,
                -1.4446790218353271
            ],
            "type" : "VEC3"
        },
        {
            "bufferView" : 5,
            "componentType" : 5126,
            "count" : 238,
            "max" : [
                1.0,
                1.0,
                1.0
            ],
            "min" : [
                -1.0,
                -1.0,
                -1.0
            ],
            "type" : "VEC3"
        },
        {
            "bufferView" : 6,
            "componentType" : 5123,
            "count" : 456,
            "max" : [
                262
            ],
            "min" : [
                0
            ],
            "type" : "SCALAR"
        },
        {
            "bufferView" : 7,
            "componentType" : 5126,
            "count" : 263,
            "max" : [
                0.4250143766403198,
                1.0119737386703491,
                1.8346571922302246
            ],
            "min" : [
                -3.2921414375305176,
                -1.0119731426239014,
                -1.4446790218353271
            ],
            "type" : "VEC3"
        },
        {
            "bufferView" : 8,
            "componentType" : 5126,
            "count" : 263,
            "max" : [
                1.0,
                1.0,
                1.0
            ],
            "min" : [
                -1.0,
                -1.0,
                -1.0
            ],
            "type" : "VEC3"
        }
    ],
    "asset" : {
        "generator" : "Khronos Blender glTF 2.0 exporter",
        "version" : "2.0"
    },
    "bufferViews" : [
        {
            "buffer" : 0,
            "byteLength" : 912,
            "byteOffset" : 0,
            "target" : 34963
        },
        {
            "buffer" : 0,
            "byteLength" : 3156,
            "byteOffset" : 912,
            "target" : 34962
        },
        {
            "buffer" : 0,
            "byteLength" : 3156,
            "byteOffset" : 4068,
            "target" : 34962
        },
        {
            "buffer" : 0,
            "byteLength" : 816,
            "byteOffset" : 7224,
            "target" : 34963
        },
        {
            "buffer" : 0,
            "byteLength" : 2856,
            "byteOffset" : 8040,
            "target" : 34962
        },
        {
            "buffer" : 0,
            "byteLength" : 2856,
            "byteOffset" : 10896,
            "target" : 34962
        },
        {
            "buffer" : 0,
            "byteLength" : 912,
            "byteOffset" : 13752,
            "target" : 34963
        },
        {
            "buffer" : 0,
            "byteLength" : 3156,
            "byteOffset" : 14664,
            "target" : 34962
        },
        {
            "buffer" : 0,
            "byteLength" : 3156,
            "byteOffset" : 17820,
            "target" : 34962
        }
    ],
    "buffers" : [
        {
            "byteLength" : 20976,
            "uri" : "blokhead.bin"
        }
    ],
    "materials" : [
        {
            "alphaMode" : "BLEND",
            "emissiveFactor" : [
                0.38019663914598567,
                0.0028495521951566877,
                1.2254762375620842
            ],
            "name" : "Material.001",
            "pbrMetallicRoughness" : {
                "baseColorFactor" : [
                    0.1980190873146057,
                    0.0014841418014839292,
                    0.6382688879966736,
                    0.717391312122345
                ],
                "metallicFactor" : 0.0
            }
        },
        {
            "name" : "Material.002",
            "pbrMetallicRoughness" : {
                "baseColorFactor" : [
                    0.640000066757203,
                    0.0,
                    0.4461258954722567,
                    1.0
                ],
                "metallicFactor" : 0.0
            }
        },
        {
            "alphaMode" : "BLEND",
            "emissiveFactor" : [
                1.1735584735870361,
                0.030851542949676514,
                1.2765377759933472
            ],
            "name" : "Material.003",
            "pbrMetallicRoughness" : {
                "baseColorFactor" : [
                    0.5867792367935181,
                    0.015425771474838257,
                    0.6382688879966736,
                    0.717391312122345
                ],
                "metallicFactor" : 0.0
            }
        },
        {
            "name" : "Material.004",
            "pbrMetallicRoughness" : {
                "baseColorFactor" : [
                    0.640000066757203,
                    0.0,
                    0.4461258954722567,
                    1.0
                ],
                "metallicFactor" : 0.0
            }
        }
    ],
    "meshes" : [
        {
            "name" : "Plane.001",
            "primitives" : [
                {
                    "attributes" : {
                        "NORMAL" : 2,
                        "POSITION" : 1
                    },
                    "indices" : 0,
                    "material" : 0
                }
            ]
        },
        {
            "name" : "Plane",
            "primitives" : [
                {
                    "attributes" : {
                        "NORMAL" : 5,
                        "POSITION" : 4
                    },
                    "indices" : 3,
                    "material" : 0
                }
            ]
        },
        {
            "name" : "Plane.002",
            "primitives" : [
                {
                    "attributes" : {
                        "NORMAL" : 8,
                        "POSITION" : 7
                    },
                    "indices" : 6,
                    "material" : 2
                }
            ]
        }
    ],
    "nodes" : [
        {
            "name" : "Camera",
            "rotation" : [
                0.5581462979316711,
                0.4926622211933136,
                -0.4322439730167389,
                0.5088436007499695
            ],
            "scale" : [
                1.0,
                0.9999999403953552,
                1.0
            ],
            "translation" : [
                6.256667137145996,
                3.1104612350463867,
                1.025380253791809
            ]
        },
        {
            "mesh" : 0,
            "name" : "main",
            "rotation" : [
                0.0,
                0.0,
                -0.7071068286895752,
                0.7071068286895752
            ],
            "translation" : [
                0.027777718380093575,
                0.887043833732605,
                -0.1111111119389534
            ]
        },
        {
            "mesh" : 2,
            "name" : "main.001",
            "rotation" : [
                0.0,
                0.0,
                -0.7071068286895752,
                0.7071068286895752
            ],
            "scale" : [
                1.069181203842163,
                1.069181203842163,
                1.069181203842163
            ],
            "translation" : [
                0.027777712792158127,
                0.730687141418457,
                -0.1111111119389534
            ]
        },
        {
            "mesh" : 1,
            "name" : "Plane",
            "rotation" : [
                0.0,
                0.0,
                -0.7071068286895752,
                0.7071068286895752
            ],
            "translation" : [
                0.027777718380093575,
                0.887043833732605,
                -0.1111111119389534
            ]
        },
        {
            "name" : "Point",
            "translation" : [
                2.9125120639801025,
                4.22929573059082,
                0.003803163766860962
            ]
        },
        {
            "name" : "Point.001",
            "translation" : [
                0.818334698677063,
                2.8152432441711426,
                0.5025303959846497
            ]
        }
    ],
    "scene" : 0,
    "scenes" : [
        {
            "name" : "Scene",
            "nodes" : [
                5,
                4,
                0,
                3,
                1,
                2
            ]
        }
    ]
}
